<?xml version="1.0" encoding="UTF-8" standalone="no"?>
<svg width="29px" height="29px" viewBox="0 0 29 29" version="1.1" xmlns="http://www.w3.org/2000/svg" xmlns:xlink="http://www.w3.org/1999/xlink">
    <!-- Generator: Sketch 47.1 (45422) - http://www.bohemiancoding.com/sketch -->
    <title>Artboard</title>
    <desc>Created with Sketch.</desc>
    <defs></defs>
    <g id="Page-1" stroke="none" stroke-width="1" fill="none" fill-rule="evenodd">
        <g id="Artboard" fill="#999894">
            <path d="M16.4930915,2.7716369 L26.0341645,11.2525907 L26.0341645,11.2525907 C26.4469473,11.6195087 26.484128,12.2515811 26.11721,12.6643638 C25.9274426,12.8778522 25.6554385,13 25.3698007,13 L3.63019932,13 L3.63019932,13 C3.07791457,13 2.63019932,12.5522847 2.63019932,12 C2.63019932,11.7143622 2.75234712,11.4423581 2.96583548,11.2525907 L12.5069085,2.7716369 L12.5069085,2.7716369 C13.6435665,1.76127418 15.3564335,1.76127418 16.4930915,2.7716369 Z" id="Triangle-2"></path>
            <path d="M16.4930915,17.7716369 L26.0341645,26.2525907 L26.0341645,26.2525907 C26.4469473,26.6195087 26.484128,27.2515811 26.11721,27.6643638 C25.9274426,27.8778522 25.6554385,28 25.3698007,28 L3.63019932,28 L3.63019932,28 C3.07791457,28 2.63019932,27.5522847 2.63019932,27 C2.63019932,26.7143622 2.75234712,26.4423581 2.96583548,26.2525907 L12.5069085,17.7716369 L12.5069085,17.7716369 C13.6435665,16.7612742 15.3564335,16.7612742 16.4930915,17.7716369 Z" id="Triangle-2" transform="translate(14.500000, 22.000000) scale(1, -1) translate(-14.500000, -22.000000) "></path>
        </g>
    </g>
</svg>